<svg width="44" height="46" viewBox="0 0 44 46" fill="none" xmlns="http://www.w3.org/2000/svg">
<path d="M29.2842 45.8558H14.7158C14.7172 43.8688 14.3376 41.901 13.5986 40.0649C12.8597 38.2288 11.7759 36.5603 10.4093 35.1548C9.0427 33.7493 7.41997 32.6343 5.63389 31.8736C3.84781 31.1129 1.93338 30.7214 0 30.7214V15.7492C3.90288 15.7492 7.64591 14.1558 10.4057 11.3195C13.1654 8.48324 14.7158 4.63645 14.7158 0.625366H29.2842C29.2842 4.63645 30.8346 8.48324 33.5943 11.3195C36.3541 14.1558 40.0971 15.7492 44 15.7492V30.7214C42.0666 30.7214 40.1522 31.1129 38.3661 31.8736C36.58 32.6343 34.9573 33.7493 33.5907 35.1548C32.2241 36.5603 31.1403 38.2288 30.4014 40.0649C29.6624 41.901 29.2828 43.8688 29.2842 45.8558Z" fill="#1D1D1B"/>
</svg>
