<svg width="24" height="25" viewBox="0 0 24 25" fill="none" xmlns="http://www.w3.org/2000/svg">
<path d="M12 3.5H8C5.23858 3.5 3 5.73858 3 8.5V16.5C3 19.2614 5.23858 21.5 8 21.5H16C18.7614 21.5 21 19.2614 21 16.5V8.5C21 5.73858 18.7614 3.5 16 3.5H12Z" stroke="white" stroke-width="2" stroke-linecap="round" stroke-linejoin="round"/>
<path d="M12 8.5C14.2091 8.5 16 10.2909 16 12.5C16 14.7091 14.2091 16.5 12 16.5C9.79086 16.5 8 14.7091 8 12.5C8 10.2909 9.79086 8.5 12 8.5Z" stroke="white" stroke-width="2" stroke-linecap="round" stroke-linejoin="round"/>
<path d="M17 9C17.8284 9 18.5 8.32843 18.5 7.5C18.5 6.67157 17.8284 6 17 6C16.1716 6 15.5 6.67157 15.5 7.5C15.5 8.32843 16.1716 9 17 9Z" fill="white"/>
</svg>
